<mxfile>
    <diagram id="a9od5td5FUS1J0CbPiiL" name="Page-1">
        <mxGraphModel dx="574" dy="756" grid="1" gridSize="10" guides="1" tooltips="1" connect="1" arrows="1" fold="1" page="1" pageScale="1" pageWidth="827" pageHeight="1169" math="0" shadow="0">
            <root>
                <mxCell id="0"/>
                <mxCell id="1" parent="0"/>
                <mxCell id="g5oG6Hlkh6P6ISmcrmNC-33" style="edgeStyle=orthogonalEdgeStyle;rounded=0;orthogonalLoop=1;jettySize=auto;html=1;startArrow=none;startFill=0;endArrow=none;endFill=0;" parent="1" source="g5oG6Hlkh6P6ISmcrmNC-6" edge="1">
                    <mxGeometry relative="1" as="geometry">
                        <mxPoint x="750" y="690" as="targetPoint"/>
                    </mxGeometry>
                </mxCell>
                <mxCell id="U_XJi_nAQHK4pAmlixSt-73" style="edgeStyle=orthogonalEdgeStyle;rounded=0;jumpStyle=arc;orthogonalLoop=1;jettySize=auto;html=1;fontColor=#000000;startArrow=none;startFill=0;endArrow=none;endFill=0;strokeColor=#000000;" parent="1" source="g5oG6Hlkh6P6ISmcrmNC-6" edge="1">
                    <mxGeometry relative="1" as="geometry">
                        <mxPoint x="507.5" y="800" as="targetPoint"/>
                    </mxGeometry>
                </mxCell>
                <mxCell id="g5oG6Hlkh6P6ISmcrmNC-6" value="ユーザーIDがDBへ&lt;br&gt;入っており、なおかつ&lt;br&gt;ステータスコードは何番か" style="rhombus;whiteSpace=wrap;html=1;" parent="1" vertex="1">
                    <mxGeometry x="393.75" y="600" width="227.5" height="180" as="geometry"/>
                </mxCell>
                <mxCell id="g5oG6Hlkh6P6ISmcrmNC-10" value="DBにユーザーID該当無し" style="text;html=1;align=center;verticalAlign=middle;resizable=0;points=[];autosize=1;strokeColor=none;" parent="1" vertex="1">
                    <mxGeometry x="605" y="660" width="150" height="20" as="geometry"/>
                </mxCell>
                <mxCell id="g5oG6Hlkh6P6ISmcrmNC-14" value="" style="edgeStyle=orthogonalEdgeStyle;rounded=0;orthogonalLoop=1;jettySize=auto;html=1;startArrow=none;startFill=0;endArrow=classic;endFill=1;" parent="1" source="g5oG6Hlkh6P6ISmcrmNC-11" edge="1">
                    <mxGeometry relative="1" as="geometry">
                        <mxPoint x="508" y="440" as="targetPoint"/>
                    </mxGeometry>
                </mxCell>
                <mxCell id="g5oG6Hlkh6P6ISmcrmNC-19" style="edgeStyle=orthogonalEdgeStyle;rounded=0;orthogonalLoop=1;jettySize=auto;html=1;startArrow=none;startFill=0;endArrow=open;endFill=0;entryX=0.5;entryY=0;entryDx=0;entryDy=0;" parent="1" source="g5oG6Hlkh6P6ISmcrmNC-11" target="g5oG6Hlkh6P6ISmcrmNC-6" edge="1">
                    <mxGeometry relative="1" as="geometry">
                        <mxPoint x="610" y="560" as="targetPoint"/>
                        <Array as="points">
                            <mxPoint x="680" y="220"/>
                            <mxPoint x="680" y="580"/>
                            <mxPoint x="508" y="580"/>
                        </Array>
                    </mxGeometry>
                </mxCell>
                <mxCell id="aNwcXHRS_zyeGUcDnTeh-2" style="edgeStyle=orthogonalEdgeStyle;rounded=0;orthogonalLoop=1;jettySize=auto;html=1;startArrow=classic;startFill=1;endArrow=none;endFill=0;exitX=1;exitY=0.5;exitDx=0;exitDy=0;" parent="1" source="aNwcXHRS_zyeGUcDnTeh-16" edge="1">
                    <mxGeometry relative="1" as="geometry">
                        <mxPoint x="750" y="220" as="targetPoint"/>
                        <mxPoint x="640" y="220" as="sourcePoint"/>
                        <Array as="points">
                            <mxPoint x="750" y="60"/>
                        </Array>
                    </mxGeometry>
                </mxCell>
                <mxCell id="U_XJi_nAQHK4pAmlixSt-58" style="edgeStyle=orthogonalEdgeStyle;rounded=0;jumpStyle=arc;orthogonalLoop=1;jettySize=auto;html=1;fontColor=#000000;startArrow=none;startFill=0;endArrow=classicThin;endFill=1;strokeColor=#000000;entryX=0.5;entryY=0;entryDx=0;entryDy=0;" parent="1" source="g5oG6Hlkh6P6ISmcrmNC-11" target="U_XJi_nAQHK4pAmlixSt-56" edge="1">
                    <mxGeometry relative="1" as="geometry">
                        <mxPoint x="320" y="220" as="targetPoint"/>
                        <Array as="points">
                            <mxPoint x="317" y="220"/>
                        </Array>
                    </mxGeometry>
                </mxCell>
                <mxCell id="g5oG6Hlkh6P6ISmcrmNC-11" value="ユーザーが文章を入力" style="rhombus;whiteSpace=wrap;html=1;" parent="1" vertex="1">
                    <mxGeometry x="410" y="170" width="195" height="100" as="geometry"/>
                </mxCell>
                <mxCell id="g5oG6Hlkh6P6ISmcrmNC-16" value="updateと入力" style="text;html=1;align=center;verticalAlign=middle;resizable=0;points=[];autosize=1;strokeColor=none;" parent="1" vertex="1">
                    <mxGeometry x="515" y="290" width="90" height="20" as="geometry"/>
                </mxCell>
                <mxCell id="g5oG6Hlkh6P6ISmcrmNC-18" value="" style="edgeStyle=orthogonalEdgeStyle;rounded=0;orthogonalLoop=1;jettySize=auto;html=1;startArrow=classicThin;startFill=1;endArrow=none;endFill=0;" parent="1" source="g5oG6Hlkh6P6ISmcrmNC-17" target="g5oG6Hlkh6P6ISmcrmNC-11" edge="1">
                    <mxGeometry relative="1" as="geometry"/>
                </mxCell>
                <mxCell id="g5oG6Hlkh6P6ISmcrmNC-17" value="DBへユーザーIDと&lt;br&gt;ステータスコード1をinsert" style="rounded=0;whiteSpace=wrap;html=1;" parent="1" vertex="1">
                    <mxGeometry x="426.25" y="330" width="162.5" height="60" as="geometry"/>
                </mxCell>
                <mxCell id="g5oG6Hlkh6P6ISmcrmNC-22" value="その他の文章" style="text;html=1;align=center;verticalAlign=middle;resizable=0;points=[];autosize=1;strokeColor=none;" parent="1" vertex="1">
                    <mxGeometry x="605" y="200" width="90" height="20" as="geometry"/>
                </mxCell>
                <mxCell id="aNwcXHRS_zyeGUcDnTeh-1" style="edgeStyle=orthogonalEdgeStyle;rounded=0;orthogonalLoop=1;jettySize=auto;html=1;endArrow=none;endFill=0;" parent="1" source="g5oG6Hlkh6P6ISmcrmNC-23" edge="1">
                    <mxGeometry relative="1" as="geometry">
                        <mxPoint x="750" y="220" as="targetPoint"/>
                    </mxGeometry>
                </mxCell>
                <mxCell id="U_XJi_nAQHK4pAmlixSt-1" style="edgeStyle=orthogonalEdgeStyle;rounded=0;orthogonalLoop=1;jettySize=auto;html=1;endArrow=none;endFill=0;startArrow=open;startFill=0;" parent="1" source="g5oG6Hlkh6P6ISmcrmNC-23" edge="1">
                    <mxGeometry relative="1" as="geometry">
                        <mxPoint x="750" y="690" as="targetPoint"/>
                    </mxGeometry>
                </mxCell>
                <mxCell id="g5oG6Hlkh6P6ISmcrmNC-23" value="ユーザーへ&lt;br&gt;ヘルプメッセージを&lt;br&gt;送信" style="rounded=0;whiteSpace=wrap;html=1;" parent="1" vertex="1">
                    <mxGeometry x="690" y="530" width="120" height="60" as="geometry"/>
                </mxCell>
                <mxCell id="U_XJi_nAQHK4pAmlixSt-2" style="edgeStyle=orthogonalEdgeStyle;rounded=0;orthogonalLoop=1;jettySize=auto;html=1;startArrow=none;startFill=0;endArrow=none;endFill=0;" parent="1" source="g5oG6Hlkh6P6ISmcrmNC-34" edge="1">
                    <mxGeometry relative="1" as="geometry">
                        <mxPoint x="508" y="560" as="targetPoint"/>
                    </mxGeometry>
                </mxCell>
                <mxCell id="g5oG6Hlkh6P6ISmcrmNC-34" value="ユーザーへ部屋名の質問文&lt;br&gt;を送信する" style="rounded=0;whiteSpace=wrap;html=1;" parent="1" vertex="1">
                    <mxGeometry x="426.25" y="440" width="162.5" height="60" as="geometry"/>
                </mxCell>
                <mxCell id="aNwcXHRS_zyeGUcDnTeh-8" value="" style="endArrow=classicThin;html=1;endFill=1;" parent="1" edge="1">
                    <mxGeometry relative="1" as="geometry">
                        <mxPoint x="80" y="60" as="sourcePoint"/>
                        <mxPoint x="457.5" y="59.5" as="targetPoint"/>
                        <Array as="points">
                            <mxPoint x="407.5" y="59.5"/>
                        </Array>
                    </mxGeometry>
                </mxCell>
                <mxCell id="U_XJi_nAQHK4pAmlixSt-22" style="edgeStyle=orthogonalEdgeStyle;rounded=0;jumpStyle=arc;orthogonalLoop=1;jettySize=auto;html=1;fontColor=#000000;startArrow=none;startFill=0;endArrow=open;endFill=0;strokeColor=#000000;" parent="1" source="aNwcXHRS_zyeGUcDnTeh-12" edge="1">
                    <mxGeometry relative="1" as="geometry">
                        <mxPoint x="506.2349999999999" y="1060.08" as="targetPoint"/>
                    </mxGeometry>
                </mxCell>
                <mxCell id="aNwcXHRS_zyeGUcDnTeh-12" value="入力された内容を&lt;br&gt;DBのtimeカラム&lt;br&gt;へUPDATE" style="rounded=0;whiteSpace=wrap;html=1;" parent="1" vertex="1">
                    <mxGeometry x="439.36" y="940.0799999999999" width="133.75" height="60" as="geometry"/>
                </mxCell>
                <mxCell id="aNwcXHRS_zyeGUcDnTeh-15" value="入力待機へ戻る" style="text;html=1;align=center;verticalAlign=middle;resizable=0;points=[];autosize=1;strokeColor=none;" parent="1" vertex="1">
                    <mxGeometry x="326.25" y="540" width="100" height="20" as="geometry"/>
                </mxCell>
                <mxCell id="aNwcXHRS_zyeGUcDnTeh-17" style="edgeStyle=orthogonalEdgeStyle;rounded=0;jumpStyle=arc;orthogonalLoop=1;jettySize=auto;html=1;entryX=0.5;entryY=0;entryDx=0;entryDy=0;startArrow=none;startFill=0;endArrow=openThin;endFill=0;" parent="1" source="aNwcXHRS_zyeGUcDnTeh-16" target="g5oG6Hlkh6P6ISmcrmNC-11" edge="1">
                    <mxGeometry relative="1" as="geometry"/>
                </mxCell>
                <mxCell id="aNwcXHRS_zyeGUcDnTeh-16" value="入力待機" style="shape=parallelogram;perimeter=parallelogramPerimeter;whiteSpace=wrap;html=1;fixedSize=1;" parent="1" vertex="1">
                    <mxGeometry x="447.5" y="30" width="120" height="60" as="geometry"/>
                </mxCell>
                <mxCell id="aNwcXHRS_zyeGUcDnTeh-23" value="" style="endArrow=none;html=1;" parent="1" edge="1">
                    <mxGeometry width="50" height="50" relative="1" as="geometry">
                        <mxPoint x="80" y="1460" as="sourcePoint"/>
                        <mxPoint x="80" y="60" as="targetPoint"/>
                        <Array as="points"/>
                    </mxGeometry>
                </mxCell>
                <mxCell id="U_XJi_nAQHK4pAmlixSt-39" style="edgeStyle=orthogonalEdgeStyle;rounded=0;jumpStyle=arc;orthogonalLoop=1;jettySize=auto;html=1;fontColor=#000000;startArrow=none;startFill=0;endArrow=open;endFill=0;strokeColor=#000000;" parent="1" source="aNwcXHRS_zyeGUcDnTeh-26" edge="1">
                    <mxGeometry relative="1" as="geometry">
                        <mxPoint x="685.6200000000001" y="1290.08" as="targetPoint"/>
                    </mxGeometry>
                </mxCell>
                <mxCell id="aNwcXHRS_zyeGUcDnTeh-26" value="ステータスコードを&lt;br&gt;2へ変更" style="rounded=0;whiteSpace=wrap;html=1;" parent="1" vertex="1">
                    <mxGeometry x="625.62" y="1060.08" width="120" height="60" as="geometry"/>
                </mxCell>
                <mxCell id="U_XJi_nAQHK4pAmlixSt-3" value="" style="endArrow=none;html=1;jumpStyle=arc;endFill=0;startArrow=open;startFill=0;" parent="1" edge="1">
                    <mxGeometry width="50" height="50" relative="1" as="geometry">
                        <mxPoint x="80" y="560" as="sourcePoint"/>
                        <mxPoint x="510" y="560" as="targetPoint"/>
                    </mxGeometry>
                </mxCell>
                <mxCell id="U_XJi_nAQHK4pAmlixSt-6" value="入力待機へ戻る" style="text;html=1;align=center;verticalAlign=middle;resizable=0;points=[];autosize=1;strokeColor=none;" parent="1" vertex="1">
                    <mxGeometry x="200" y="1440" width="100" height="20" as="geometry"/>
                </mxCell>
                <mxCell id="U_XJi_nAQHK4pAmlixSt-14" style="edgeStyle=orthogonalEdgeStyle;rounded=0;jumpStyle=arc;orthogonalLoop=1;jettySize=auto;html=1;fontColor=#000000;startArrow=none;startFill=0;endArrow=open;endFill=0;strokeColor=#000000;" parent="1" source="U_XJi_nAQHK4pAmlixSt-7" edge="1">
                    <mxGeometry relative="1" as="geometry">
                        <mxPoint x="685.615" y="1060.08" as="targetPoint"/>
                    </mxGeometry>
                </mxCell>
                <mxCell id="U_XJi_nAQHK4pAmlixSt-7" value="入力された内容を&lt;br&gt;DBのroom_nameカラム&lt;br&gt;へUPDATE" style="whiteSpace=wrap;html=1;" parent="1" vertex="1">
                    <mxGeometry x="618.74" y="940.0799999999999" width="133.75" height="60" as="geometry"/>
                </mxCell>
                <mxCell id="U_XJi_nAQHK4pAmlixSt-13" style="edgeStyle=orthogonalEdgeStyle;rounded=0;jumpStyle=arc;orthogonalLoop=1;jettySize=auto;html=1;entryX=0.5;entryY=0;entryDx=0;entryDy=0;fontColor=#000000;startArrow=none;startFill=0;endArrow=open;endFill=0;strokeColor=#000000;" parent="1" source="aNwcXHRS_zyeGUcDnTeh-22" target="U_XJi_nAQHK4pAmlixSt-7" edge="1">
                    <mxGeometry relative="1" as="geometry"/>
                </mxCell>
                <mxCell id="aNwcXHRS_zyeGUcDnTeh-22" value="ステータスコードが1&lt;br&gt;（部屋名入力待機）&lt;br&gt;の場合" style="text;align=center;verticalAlign=middle;resizable=0;points=[];autosize=1;strokeColor=#000000;rounded=0;glass=0;shadow=0;sketch=0;labelBackgroundColor=none;labelBorderColor=none;html=1;horizontal=1;" parent="1" vertex="1">
                    <mxGeometry x="620.61" y="830.08" width="130" height="50" as="geometry"/>
                </mxCell>
                <mxCell id="U_XJi_nAQHK4pAmlixSt-24" style="edgeStyle=orthogonalEdgeStyle;rounded=0;jumpStyle=arc;orthogonalLoop=1;jettySize=auto;html=1;entryX=0.5;entryY=0;entryDx=0;entryDy=0;fontColor=#000000;startArrow=none;startFill=0;endArrow=open;endFill=0;strokeColor=#000000;" parent="1" source="U_XJi_nAQHK4pAmlixSt-17" target="aNwcXHRS_zyeGUcDnTeh-12" edge="1">
                    <mxGeometry relative="1" as="geometry"/>
                </mxCell>
                <mxCell id="U_XJi_nAQHK4pAmlixSt-74" style="edgeStyle=orthogonalEdgeStyle;rounded=0;jumpStyle=arc;orthogonalLoop=1;jettySize=auto;html=1;fontColor=#000000;startArrow=none;startFill=0;endArrow=none;endFill=0;strokeColor=#000000;" parent="1" source="U_XJi_nAQHK4pAmlixSt-17" edge="1">
                    <mxGeometry relative="1" as="geometry">
                        <mxPoint x="506.24" y="800" as="targetPoint"/>
                    </mxGeometry>
                </mxCell>
                <mxCell id="U_XJi_nAQHK4pAmlixSt-17" value="ステータスコードが2&lt;br&gt;（時間入力待機）&lt;br&gt;の場合" style="text;align=center;verticalAlign=middle;resizable=0;points=[];autosize=1;strokeColor=#000000;rounded=0;glass=0;shadow=0;sketch=0;labelBackgroundColor=none;labelBorderColor=none;html=1;horizontal=1;" parent="1" vertex="1">
                    <mxGeometry x="441.24" y="830.08" width="130" height="50" as="geometry"/>
                </mxCell>
                <mxCell id="U_XJi_nAQHK4pAmlixSt-26" value="" style="endArrow=none;html=1;fontColor=#000000;strokeColor=#000000;" parent="1" edge="1">
                    <mxGeometry width="50" height="50" relative="1" as="geometry">
                        <mxPoint x="80" y="1460" as="sourcePoint"/>
                        <mxPoint x="690" y="1460" as="targetPoint"/>
                    </mxGeometry>
                </mxCell>
                <mxCell id="U_XJi_nAQHK4pAmlixSt-43" style="edgeStyle=orthogonalEdgeStyle;rounded=0;jumpStyle=arc;orthogonalLoop=1;jettySize=auto;html=1;entryX=0.5;entryY=0;entryDx=0;entryDy=0;fontColor=#000000;startArrow=none;startFill=0;endArrow=open;endFill=0;strokeColor=#000000;" parent="1" source="U_XJi_nAQHK4pAmlixSt-27" target="U_XJi_nAQHK4pAmlixSt-29" edge="1">
                    <mxGeometry relative="1" as="geometry"/>
                </mxCell>
                <mxCell id="U_XJi_nAQHK4pAmlixSt-27" value="ステータスコードを&lt;br&gt;0(割り当て無し）へ変更" style="rounded=0;whiteSpace=wrap;html=1;" parent="1" vertex="1">
                    <mxGeometry x="439.36" y="1060.08" width="136.26" height="60" as="geometry"/>
                </mxCell>
                <mxCell id="U_XJi_nAQHK4pAmlixSt-44" style="edgeStyle=orthogonalEdgeStyle;rounded=0;jumpStyle=arc;orthogonalLoop=1;jettySize=auto;html=1;fontColor=#000000;startArrow=none;startFill=0;endArrow=open;endFill=0;strokeColor=#000000;" parent="1" source="U_XJi_nAQHK4pAmlixSt-29" edge="1">
                    <mxGeometry relative="1" as="geometry">
                        <mxPoint x="507.4849999999999" y="1290.08" as="targetPoint"/>
                    </mxGeometry>
                </mxCell>
                <mxCell id="U_XJi_nAQHK4pAmlixSt-29" value="datatimeカラムへ&lt;br&gt;7日後の日付を&lt;br&gt;UPDATE&lt;br&gt;(一旦デフォルトの7日ごとに&lt;br&gt;通知するという情報をupdate）" style="rounded=0;whiteSpace=wrap;html=1;" parent="1" vertex="1">
                    <mxGeometry x="415.61" y="1170.08" width="183.75" height="89.92" as="geometry"/>
                </mxCell>
                <mxCell id="U_XJi_nAQHK4pAmlixSt-42" style="edgeStyle=orthogonalEdgeStyle;rounded=0;jumpStyle=arc;orthogonalLoop=1;jettySize=auto;html=1;entryX=0.466;entryY=-0.06;entryDx=0;entryDy=0;entryPerimeter=0;fontColor=#000000;startArrow=none;startFill=0;endArrow=none;endFill=0;strokeColor=#000000;" parent="1" edge="1">
                    <mxGeometry relative="1" as="geometry">
                        <mxPoint x="572.49" y="800.08" as="sourcePoint"/>
                        <mxPoint x="682.3399999999999" y="830.08" as="targetPoint"/>
                    </mxGeometry>
                </mxCell>
                <mxCell id="U_XJi_nAQHK4pAmlixSt-46" value="datesetと入力" style="text;html=1;align=center;verticalAlign=middle;resizable=0;points=[];autosize=1;strokeColor=none;fontColor=#000000;" parent="1" vertex="1">
                    <mxGeometry x="310" y="200" width="90" height="20" as="geometry"/>
                </mxCell>
                <mxCell id="U_XJi_nAQHK4pAmlixSt-53" style="edgeStyle=orthogonalEdgeStyle;rounded=0;jumpStyle=arc;orthogonalLoop=1;jettySize=auto;html=1;entryX=0.5;entryY=0;entryDx=0;entryDy=0;fontColor=#000000;startArrow=none;startFill=0;endArrow=open;endFill=0;strokeColor=#000000;" parent="1" source="U_XJi_nAQHK4pAmlixSt-47" target="U_XJi_nAQHK4pAmlixSt-52" edge="1">
                    <mxGeometry relative="1" as="geometry"/>
                </mxCell>
                <mxCell id="U_XJi_nAQHK4pAmlixSt-47" value="ステータスコードが3&lt;br&gt;（通知頻度入力待機）&lt;br&gt;の場合" style="text;align=center;verticalAlign=middle;resizable=0;points=[];autosize=1;strokeColor=#000000;rounded=0;glass=0;shadow=0;sketch=0;labelBackgroundColor=none;labelBorderColor=none;html=1;horizontal=1;" parent="1" vertex="1">
                    <mxGeometry x="267.49" y="830.08" width="140" height="50" as="geometry"/>
                </mxCell>
                <mxCell id="U_XJi_nAQHK4pAmlixSt-51" style="edgeStyle=orthogonalEdgeStyle;rounded=0;jumpStyle=arc;orthogonalLoop=1;jettySize=auto;html=1;fontColor=#000000;startArrow=none;startFill=0;endArrow=none;endFill=0;strokeColor=#000000;" parent="1" edge="1">
                    <mxGeometry relative="1" as="geometry">
                        <mxPoint x="580" y="800" as="sourcePoint"/>
                        <mxPoint x="332.49" y="827.08" as="targetPoint"/>
                        <Array as="points">
                            <mxPoint x="332.49" y="800.08"/>
                            <mxPoint x="332.49" y="827.08"/>
                        </Array>
                    </mxGeometry>
                </mxCell>
                <mxCell id="U_XJi_nAQHK4pAmlixSt-55" style="edgeStyle=orthogonalEdgeStyle;rounded=0;jumpStyle=arc;orthogonalLoop=1;jettySize=auto;html=1;entryX=0.5;entryY=0;entryDx=0;entryDy=0;fontColor=#000000;startArrow=none;startFill=0;endArrow=open;endFill=0;strokeColor=#000000;" parent="1" source="U_XJi_nAQHK4pAmlixSt-52" target="U_XJi_nAQHK4pAmlixSt-54" edge="1">
                    <mxGeometry relative="1" as="geometry"/>
                </mxCell>
                <mxCell id="U_XJi_nAQHK4pAmlixSt-52" value="入力された内容を元に&lt;br&gt;datatimeを生成" style="rounded=0;whiteSpace=wrap;html=1;" parent="1" vertex="1">
                    <mxGeometry x="270.62" y="940.0799999999999" width="133.75" height="60" as="geometry"/>
                </mxCell>
                <mxCell id="11" style="edgeStyle=orthogonalEdgeStyle;rounded=0;orthogonalLoop=1;jettySize=auto;html=1;" edge="1" parent="1" source="U_XJi_nAQHK4pAmlixSt-54">
                    <mxGeometry relative="1" as="geometry">
                        <mxPoint x="337.4900000000001" y="1179.9999999999998" as="targetPoint"/>
                    </mxGeometry>
                </mxCell>
                <mxCell id="U_XJi_nAQHK4pAmlixSt-54" value="生成したdatetimeを&lt;br&gt;DBへUPDATE" style="rounded=0;whiteSpace=wrap;html=1;" parent="1" vertex="1">
                    <mxGeometry x="269.36" y="1059.08" width="136.26" height="60" as="geometry"/>
                </mxCell>
                <mxCell id="U_XJi_nAQHK4pAmlixSt-59" style="edgeStyle=orthogonalEdgeStyle;rounded=0;jumpStyle=arc;orthogonalLoop=1;jettySize=auto;html=1;fontColor=#000000;startArrow=none;startFill=0;endArrow=classicThin;endFill=1;strokeColor=#000000;" parent="1" source="U_XJi_nAQHK4pAmlixSt-56" edge="1">
                    <mxGeometry relative="1" as="geometry">
                        <mxPoint x="80" y="410" as="targetPoint"/>
                        <Array as="points">
                            <mxPoint x="317" y="410"/>
                        </Array>
                    </mxGeometry>
                </mxCell>
                <mxCell id="U_XJi_nAQHK4pAmlixSt-56" value="ユーザーへ&lt;br&gt;日数の入力を要求する&lt;br&gt;内容のメッセージを&lt;br&gt;送信" style="rounded=0;whiteSpace=wrap;html=1;" parent="1" vertex="1">
                    <mxGeometry x="255.62" y="280" width="123.13" height="60" as="geometry"/>
                </mxCell>
                <mxCell id="U_XJi_nAQHK4pAmlixSt-60" value="入力待機へ戻る" style="text;html=1;align=center;verticalAlign=middle;resizable=0;points=[];autosize=1;strokeColor=none;" parent="1" vertex="1">
                    <mxGeometry x="210" y="380" width="100" height="20" as="geometry"/>
                </mxCell>
                <mxCell id="U_XJi_nAQHK4pAmlixSt-70" style="edgeStyle=orthogonalEdgeStyle;rounded=0;jumpStyle=arc;orthogonalLoop=1;jettySize=auto;html=1;fontColor=#000000;startArrow=none;startFill=0;endArrow=classicThin;endFill=1;strokeColor=#000000;" parent="1" source="U_XJi_nAQHK4pAmlixSt-62" edge="1">
                    <mxGeometry relative="1" as="geometry">
                        <mxPoint x="686.8700000000001" y="1460.08" as="targetPoint"/>
                    </mxGeometry>
                </mxCell>
                <mxCell id="U_XJi_nAQHK4pAmlixSt-62" value="ユーザーへ時刻入力&lt;br&gt;待機であるメッセージを&lt;br&gt;送信する" style="rounded=0;whiteSpace=wrap;html=1;" parent="1" vertex="1">
                    <mxGeometry x="618.74" y="1290.08" width="136.26" height="60" as="geometry"/>
                </mxCell>
                <mxCell id="U_XJi_nAQHK4pAmlixSt-66" style="edgeStyle=orthogonalEdgeStyle;rounded=0;jumpStyle=arc;orthogonalLoop=1;jettySize=auto;html=1;fontColor=#000000;startArrow=none;startFill=0;endArrow=classicThin;endFill=1;strokeColor=#000000;" parent="1" source="U_XJi_nAQHK4pAmlixSt-63" edge="1">
                    <mxGeometry relative="1" as="geometry">
                        <mxPoint x="507.49" y="1460.08" as="targetPoint"/>
                    </mxGeometry>
                </mxCell>
                <mxCell id="U_XJi_nAQHK4pAmlixSt-63" value="ユーザーへ完了メッセージと&lt;br&gt;通知頻度設定方法に関する&lt;br&gt;ヘルプメッセージを送信" style="rounded=0;whiteSpace=wrap;html=1;" parent="1" vertex="1">
                    <mxGeometry x="421.55" y="1290.08" width="171.88" height="60" as="geometry"/>
                </mxCell>
                <mxCell id="17" style="edgeStyle=orthogonalEdgeStyle;rounded=0;orthogonalLoop=1;jettySize=auto;html=1;" edge="1" parent="1" source="U_XJi_nAQHK4pAmlixSt-67">
                    <mxGeometry relative="1" as="geometry">
                        <mxPoint x="331.8700000000001" y="1460" as="targetPoint"/>
                    </mxGeometry>
                </mxCell>
                <mxCell id="U_XJi_nAQHK4pAmlixSt-67" value="ユーザーへ登録完了&lt;br&gt;メッセージを送信" style="rounded=0;whiteSpace=wrap;html=1;" parent="1" vertex="1">
                    <mxGeometry x="263.74" y="1290.08" width="136.26" height="60" as="geometry"/>
                </mxCell>
                <mxCell id="5" style="edgeStyle=orthogonalEdgeStyle;rounded=0;orthogonalLoop=1;jettySize=auto;html=1;endArrow=none;endFill=0;" parent="1" source="2" edge="1">
                    <mxGeometry relative="1" as="geometry">
                        <mxPoint x="350" y="800" as="targetPoint"/>
                        <Array as="points">
                            <mxPoint x="165" y="800"/>
                        </Array>
                    </mxGeometry>
                </mxCell>
                <mxCell id="7" style="edgeStyle=orthogonalEdgeStyle;rounded=0;orthogonalLoop=1;jettySize=auto;html=1;endArrow=classicThin;endFill=1;" parent="1" source="2" target="6" edge="1">
                    <mxGeometry relative="1" as="geometry"/>
                </mxCell>
                <mxCell id="2" value="ステータスコードが0&lt;br&gt;（非待機状態）&lt;br&gt;の場合" style="text;align=center;verticalAlign=middle;resizable=0;points=[];autosize=1;strokeColor=#000000;rounded=0;glass=0;shadow=0;sketch=0;labelBackgroundColor=none;labelBorderColor=none;html=1;horizontal=1;" parent="1" vertex="1">
                    <mxGeometry x="100" y="830.08" width="130" height="50" as="geometry"/>
                </mxCell>
                <mxCell id="8" style="edgeStyle=orthogonalEdgeStyle;rounded=0;orthogonalLoop=1;jettySize=auto;html=1;endArrow=classicThin;endFill=1;" parent="1" source="6" edge="1">
                    <mxGeometry relative="1" as="geometry">
                        <mxPoint x="165" y="1460" as="targetPoint"/>
                    </mxGeometry>
                </mxCell>
                <mxCell id="6" value="アップデート待機&lt;br&gt;に関する&lt;br&gt;ヘルプメッセージを送信" style="text;align=center;verticalAlign=middle;resizable=0;points=[];autosize=1;strokeColor=#000000;rounded=0;glass=0;shadow=0;sketch=0;labelBackgroundColor=none;labelBorderColor=none;html=1;horizontal=1;" parent="1" vertex="1">
                    <mxGeometry x="90" y="940.08" width="150" height="50" as="geometry"/>
                </mxCell>
                <mxCell id="16" style="edgeStyle=orthogonalEdgeStyle;rounded=0;orthogonalLoop=1;jettySize=auto;html=1;" edge="1" parent="1" source="10">
                    <mxGeometry relative="1" as="geometry">
                        <mxPoint x="331.8700000000001" y="1289.9999999999998" as="targetPoint"/>
                    </mxGeometry>
                </mxCell>
                <mxCell id="10" value="ステータスコードを&lt;br&gt;0(割り当て無し）へ変更" style="rounded=0;whiteSpace=wrap;html=1;" vertex="1" parent="1">
                    <mxGeometry x="263.74" y="1185.04" width="136.26" height="60" as="geometry"/>
                </mxCell>
            </root>
        </mxGraphModel>
    </diagram>
</mxfile>